<svg xmlns="http://www.w3.org/2000/svg" width="576.49928" height="493.5" viewBox="0 0 576.49928 493.5" xmlns:xlink="http://www.w3.org/1999/xlink" role="img" artist="Katerina Limpitsouni" source="https://undraw.co/"><path d="M419.4457,287.3877H633.02714V299.073H446.71128a83.41834,83.41834,0,0,0-83.41857,83.41839V515.25H339.92222a3.89516,3.89516,0,0,1-3.89508-3.89508V370.80609A83.41833,83.41833,0,0,1,419.4457,287.3877Z" transform="translate(-311.75036 -203.25)" fill="#f2f2f2"/><path d="M460.52714,692.25V514.75h52v177.5a4.50508,4.50508,0,0,1-4.5,4.5h-43A4.50508,4.50508,0,0,1,460.52714,692.25Z" transform="translate(-311.75036 -203.25)" fill="#3f3d56"/><path d="M325.02714,511.25V366.91553A86.76355,86.76355,0,0,1,411.69242,280.25H632.02714v236h-302A5.00573,5.00573,0,0,1,325.02714,511.25Zm305-229H411.69242a84.76141,84.76141,0,0,0-84.66528,84.66553V511.25a3.00328,3.00328,0,0,0,3,3h300Z" transform="translate(-311.75036 -203.25)" fill="#3f3d56"/><path d="M515.02714,410.25a18.02031,18.02031,0,0,1-18-18v-129a3.00328,3.00328,0,0,0-3-3h-70a5.0058,5.0058,0,0,1-5-5v-47a5.0058,5.0058,0,0,1,5-5h104a5.00573,5.00573,0,0,1,5,5v184A18.02031,18.02031,0,0,1,515.02714,410.25Z" transform="translate(-311.75036 -203.25)" fill="#1d4ed8"/><path d="M640.02714,278.25h0a56.88093,56.88093,0,0,1,57,56.76144V499.32108h112a16.96465,16.96465,0,0,1,17,16.92887h-243V335.01143A56.88093,56.88093,0,0,1,640.02714,278.25Z" transform="translate(-311.75036 -203.25)" fill="#3f3d56"/><circle cx="203.27678" cy="189" r="7" fill="#fff"/></svg>